<svg version="1.2" xmlns="http://www.w3.org/2000/svg" viewBox="0 0 466 509" width="466" height="509">
	<style>
		.s0 { fill: #231f20 } 
		.s1 { fill: #fefefe } 
		.s2 { fill: #000000 } 
	</style>
	<g id="Warstwa 1">
		<g id="&lt;Group&gt;">
			<g id="&lt;Group&gt;">
				<path id="&lt;Compound Path&gt;" class="s0" d="m150.65 400.71h-13.87l9.68-68.44 27.28 42.09 27.28-42.09 9.69 68.44h-13.88l-4.19-36.59-18.9 30.53-18.9-30.53z"/>
				<path id="&lt;Compound Path&gt;" class="s0" d="m233.98 335.53v65.18h-12.85v-65.18zm-4.28 0h32.87v11.27h-32.87zm0 25.04h31.01v11.08h-31.01zm0 28.87h32.87v11.26h-32.87z"/>
				<path id="&lt;Compound Path&gt;" class="s0" d="m289.29 335.53v65.18h-13.6v-65.18zm-5.02 65.18v-12.11h13.12q4.29 0 8.1-1.16 3.82-1.16 6.71-3.68 2.88-2.51 4.51-6.38 1.63-3.86 1.63-9.26 0-5.4-1.63-9.26-1.63-3.87-4.51-6.38-2.89-2.51-6.71-3.68-3.81-1.16-8.1-1.16h-13.12v-12.11h13.59q10.24 0 17.92 4.01 7.68 4 11.97 11.31 4.28 7.31 4.28 17.27 0 9.96-4.28 17.27-4.29 7.31-11.97 11.31-7.68 4.01-17.92 4.01z"/>
			</g>
			<g id="&lt;Group&gt;">
				<path id="&lt;Compound Path&gt;" class="s0" d="m255.63 325.8h-5.03l5.03-44.68 16.54 30.82 16.55-30.82 5.03 44.68h-5.03l-3.07-28.75-13.48 24.8-13.47-24.8z"/>
				<path id="&lt;Compound Path&gt;" class="s0" d="m303.88 316.99q1.21 2.25 3.31 3.55 2.1 1.31 4.76 1.31 2.18 0 4.11-0.7 1.92-0.7 3.34-1.88 1.41-1.19 2.01-2.53v6.08q-1.42 1.71-4.05 2.65-2.63 0.94-5.41 0.94-3.96 0-7.15-1.88-3.19-1.89-5.06-5.2-1.86-3.31-1.86-7.51 0-4.25 1.86-7.54 1.87-3.28 5.06-5.16 3.19-1.89 7.15-1.89 2.78 0 5.41 0.94 2.63 0.95 4.05 2.65v6.08q-0.6-1.4-2.01-2.56-1.42-1.15-3.34-1.85-1.93-0.7-4.11-0.7-2.66 0-4.76 1.28-2.1 1.27-3.31 3.55-1.21 2.28-1.21 5.2 0 2.92 1.21 5.17z"/>
			</g>
			<path id="&lt;Compound Path&gt;" fill-rule="evenodd" class="s0" d="m229.4 148.26c3.39 1.93 7.18 3.95 11.33 6.16 47.66 24.38 21.34 42.3-18.3 62.52-29.67 19.4 39.68 20.1 32.7 49.7-4.97 21.06-36.83 14.19-42.73 32.82-7.44-23.81 38.33-18.56 34.04-39.28q-2.84-7.69-22.45-14.21c-17.21-5.54-24.82-17.49-21.08-29.4 5.49-19.85 62.29-25.71 44.65-40.92-3.38-2.61-9.22-5.59-18.16-9.15zm-12.9-8.94c2.63 2.52 6.09 4.91 10.25 7.4v18.75q-2.95-1.13-6.31-2.35-2.04-0.67-3.94-1.45zm60.33-25.29c-10.2 1.95-32.23 7.16-34.6-5.99-22.77-3.08-31.92 11.79-31.72 18.94 0.09 3.55 1.25 6.59 3.34 9.38v24.13c-39.52-18.92-27.02-76.14 37.26-67.69 5.04-11.66 43.19 17.09 25.72 21.23z"/>
			<path id="&lt;Path&gt;" class="s0" d="m225.07 288.91l-0.35 36.89h-6.39l-0.3-33.53 0.1 0.2q3.58-1.89 6.94-3.56z"/>
			<path id="&lt;Path&gt;" class="s0" d="m225.97 218.99l-0.75 59.54q-2.33 1.06-4.79 2.24-1.26 0.61-2.56 1.25l-0.73-58.59z"/>
			<path id="&lt;Path&gt;" class="s0" d="m227.33 110.95l-1.06 84.32-9.43 4.73-1.03-81.74q3.14-3.84 7.73-5.94 1.78-0.81 3.79-1.37z"/>
			<path id="&lt;Path&gt;" class="s0" d="m235.8 53.6q0.38 1.63 0.38 3.37c0 5.83-3.4 10.87-8.34 13.23l-0.26 20.65q-1.97 0.25-3.81 0.6-4.47 0.83-8.27 2.19l-0.29-23.44c-4.94-2.36-8.34-7.4-8.34-13.23q0-1.74 0.38-3.37c2.09 5.15 6.88 8.91 12.61 9.53q0.82 0.1 1.66 0.1 0.85 0 1.67-0.1c5.73-0.62 10.52-4.38 12.61-9.53z"/>
			<path id="&lt;Path&gt;" class="s0" d="m221.52 30.71c7.87 0 14.24 6.38 14.24 14.24 0 7.86-6.37 14.23-14.24 14.23-7.86 0-14.23-6.37-14.23-14.23 0-7.86 6.37-14.24 14.23-14.24z"/>
			<path id="&lt;Path&gt;" class="s0" d="m259.85 95.75c0.81 0.3 1.3 1 1.09 1.57-0.21 0.57-1.04 0.8-1.85 0.5-0.81-0.29-1.3-0.99-1.09-1.57 0.21-0.57 1.04-0.8 1.85-0.5z"/>
			<path id="&lt;Path&gt;" class="s0" d="m293.69 114.81c-10.43 1.91-3.4-0.27-12.08-4.05 4.41 2.43 2.25 9.39 12.08 4.05z"/>
			<path id="&lt;Path&gt;" class="s1" d="m260.46 96.85c0.76 0 1.37 0.62 1.37 1.37 0 0.76-0.61 1.37-1.37 1.37-0.75 0-1.37-0.61-1.37-1.37 0-0.75 0.62-1.37 1.37-1.37z"/>
			<g id="&lt;Group&gt;">
				<path id="&lt;Path&gt;" class="s2" d="m410.41 278.27c-0.1-2.73-0.48-5.45-0.54-8.18-0.05-2.62-0.89-5.11-1.14-7.67-0.53-5.3-0.88-10.6-2.19-15.8-0.73-2.94-2.65-4.58-5.68-4.58-6.87 0.01-13.74-0.02-20.61 0.04-1.47 0.02-2.1-0.58-2.54-1.94-1.06-3.23-1.58-6.63-3-9.75-1.37-3.02-2.15-6.26-3.44-9.32-1.12-2.66-2.39-5.24-3.48-7.91-0.63-1.55-0.4-2.11 1.07-2.92 0.59-0.33 1.23-0.57 1.76-0.98 3.98-3.11 8.38-5.56 12.67-8.19 1.14-0.7 1.43-1.42 0.67-2.46-1.08-1.48-2.07-3-3.05-4.54-3.27-5.2-6.64-10.33-9.92-15.52-4.69-7.42-9.32-14.88-14-22.3-3.18-5.02-6.45-9.99-9.61-15.03-1.98-3.16-3.99-6.32-5.89-9.54-2.07-3.51-4.55-6.77-6.59-10.3-0.86-1.49-1.36-1.64-2.86-0.68-5.92 3.75-11.96 7.33-17.81 11.16-5.74 3.75-11.58 7.35-17.31 11.13-5.92 3.91-12 7.59-18.01 11.37q-0.01 0.01-0.02 0.02v11.54c10.3-5.88 20.47-12 30.67-18.06q10.47-6.21 20.88-12.5c1.08-0.65 1.65-0.27 2.23 0.63q3.71 5.76 7.43 11.5 9.44 14.66 18.89 29.3 6.54 10.1 13.11 20.18c1 1.52 0.98 1.76-0.54 2.74-4.97 3.2-9.94 6.39-14.95 9.52-1 0.63-1.22 1.27-0.63 2.23 0.73 1.19 1.54 2.33 2.19 3.55 4.88 9.12 8.18 18.84 10.87 28.79q0.52 1.95 1.06 3.9c0.75 2.69 2.31 3.94 5.11 3.95q10.38 0.03 20.76 0c1.95 0 2.07 0.08 2.38 2.05 2.11 12.99 2.64 26.08 2.13 39.21-0.19 4.89-0.73 9.77-1.49 14.61-0.27 1.7-0.38 3.43-0.65 5.14-0.3 1.93-0.49 2.07-2.4 2.07q-10.02 0-20.04 0c-3.74 0.01-5.03 1.07-6 4.67-2.8 10.46-5.99 20.77-10.94 30.46-1.74 3.42-3.37 6.89-5.37 10.18-1.99 3.26-1.44 5.33 1.32 8 3.41 3.3 6.59 6.84 9.88 10.27q2.19 2.29 4.46 4.51c0.85 0.83 0.81 1.5 0.13 2.49-4.1 5.95-8.7 11.49-13.42 16.93-2.08 2.39-4.42 4.55-6.59 6.86-5.47 5.83-11.52 11.01-17.67 16.09-0.96 0.79-2.03 1.45-3 2.24-1.09 0.88-1.94 0.86-2.96-0.21-4.93-5.2-9.93-10.31-14.88-15.49-1.28-1.35-2.79-1.8-4.57-1.51-0.87 0.14-1.61 0.6-2.34 1.06-11.33 7.18-23.52 12.38-36.38 16.07-1.02 0.3-2.06 0.47-3.09 0.72-2.98 0.76-4.37 2.52-4.37 5.59q-0.01 10.6 0 21.2c0 2.1-0.24 2.28-2.33 2.66-8.77 1.61-17.6 2.33-26.51 2.34-8.55 0.01-17.08-0.19-25.54-1.63-1.56-0.27-3.13-0.49-4.69-0.75-1.89-0.3-2.01-0.46-2.01-2.43q0-10.46 0-20.91c-0.01-3.83-1.28-5.34-5.02-6.23-7.6-1.8-14.87-4.52-22.01-7.67-6.08-2.67-11.89-5.82-17.52-9.33-2.2-1.37-4.34-1.07-6.13 0.77q-7.27 7.5-14.52 15.03c-1.6 1.66-2.02 1.69-3.86 0.33-6.05-4.45-11.67-9.4-17.05-14.61-6.35-6.15-12.24-12.73-17.72-19.67-1.97-2.49-3.73-5.12-5.62-7.67-0.66-0.89-0.41-1.56 0.28-2.28q5.54-5.66 11.05-11.35 2.15-2.23 4.27-4.48c1.77-1.85 2.15-3.83 0.83-6.04q-2.63-4.4-4.92-8.97c-2.59-5.14-4.8-10.46-6.82-15.85-2.17-5.82-3.79-11.8-5.34-17.8-0.64-2.47-2.37-3.58-5.24-3.59q-10.1-0.01-20.19 0c-2.38 0-2.4 0-2.71-2.3-1.06-7.85-2.04-15.69-2.3-23.63-0.33-10.26 0.28-20.43 1.73-30.58 0.22-1.56 0.5-3.13 0.6-4.71 0.08-1.42 0.71-1.9 2.09-1.88 6.68 0.05 13.36 0.03 20.04 0.04 4.02 0 5.38-1.08 6.36-5 2.02-8.13 4.49-16.09 7.92-23.76 1.17-2.62 2.41-5.23 3.51-7.89 0.34-0.8 0.08-1.28-0.48-1.88-3.71-3.98-8.55-6.31-13.08-9.08-1.73-1.06-1.79-1.3-0.65-2.99 2.31-3.43 4.06-7.18 6.12-10.76 3.8-6.62 7.36-13.38 11.22-19.97 2.49-4.27 4.78-8.65 7.28-12.92 3.24-5.55 6.3-11.21 9.43-16.82q1.37-2.46 2.67-4.94c0.59-1.11 1.31-1.2 2.35-0.57q6.5 3.87 13.04 7.67c5.68 3.32 11.39 6.6 17.06 9.93 5.34 3.14 10.65 6.32 15.98 9.47q1.52 0.9 3.03 1.79v-9.52q-2.38-1.52-4.83-2.94c-5.82-3.34-11.73-6.55-17.42-10.11-2.44-1.53-4.91-3.05-7.42-4.42-4.35-2.36-8.48-5.05-12.79-7.46-3.18-1.78-6.4-3.51-9.42-5.56-0.79-0.55-1.61-0.53-2.05 0.43-0.87 1.89-2.15 3.52-3.2 5.3-3.23 5.49-6.3 11.08-9.67 16.5-0.88 1.43-1.56 2.98-2.42 4.42-2.44 4.08-5.11 8.03-7.36 12.2-2.13 3.92-4.56 7.65-6.73 11.55-2.1 3.77-4.28 7.5-6.44 11.24-1.97 3.4-3.84 6.87-5.98 10.16-1.76 2.71-3.18 5.59-4.85 8.34-0.53 0.87-0.35 1.67 0.57 2.21 1.07 0.64 2.17 1.23 3.24 1.86q5.65 3.31 11.29 6.64 1.02 0.6 0.57 1.73c-1.86 4.57-3.82 9.1-5.4 13.8-1.08 3.21-1.85 6.52-3.04 9.71-0.67 1.81-0.68 2.04-2.69 2.03q-10.53-0.01-21.05-0.02c-2.54 0-4.64 1.68-5.02 4.22q-0.29 1.92-0.72 3.81c-1.13 5.03-1.05 10.2-1.96 15.26-0.63 3.45-0.49 6.98-0.71 10.48-0.44 7.06-0.08 14.1 0.26 21.15 0.19 3.99 1.02 7.9 1.38 11.87 0.37 4.05 0.87 8.13 2.1 12.05 0.48 1.52 1.45 2.54 2.96 3.1 0.8 0.29 1.59 0.33 2.41 0.32q10.31 0 20.62-0.01c0.95 0 1.97 0.02 2.19 1.16 0.35 1.76 1.17 3.35 1.65 5.06 0.98 3.46 2 6.93 3.28 10.28 1.2 3.13 2.67 6.16 3.95 9.26 1.6 3.87 3.59 7.53 5.48 11.25 0.51 1.01 0.53 1.75-0.27 2.57q-4.48 4.58-8.93 9.2c-2.26 2.36-4.54 4.7-6.75 7.1-1.43 1.56-1.84 3.73-1.04 5.03 0.7 1.15 1.39 2.3 2.18 3.38 3.04 4.14 6.02 8.31 9.17 12.37 4.37 5.63 9.28 10.75 14.18 15.88 3.61 3.78 7.48 7.3 11.47 10.7 4.61 3.93 9.47 7.53 14.38 11.05 1.47 1.06 3.89 1.08 5.03 0.09q1.96-1.7 3.75-3.57 6.45-6.78 13.13-13.32c0.56-0.55 1.09-0.61 1.8-0.23 3.33 1.8 6.64 3.65 10.04 5.32 3.36 1.65 6.77 3.21 10.25 4.6 4.4 1.76 8.87 3.34 13.43 4.64 2.62 0.75 2.46 0.98 2.46 3.54q-0.02 10.6-0.01 21.19c0 2.69 1.23 4.39 3.86 4.99 2.85 0.65 5.76 1.07 8.61 1.65 6.66 1.35 13.41 1.84 20.13 2.3 9.1 0.61 18.21-0.08 27.28-1.16 1.76-0.21 3.53-0.39 5.27-0.7 3.11-0.55 6.19-1.26 9.31-1.76 2.75-0.43 4.47-1.7 4.99-4.06 0.14-0.65 0.14-1.34 0.14-2.01q0.01-10.66-0.01-21.33c-0.01-1 0.02-1.89 1.26-2.26q3.98-1.22 7.91-2.58c2.54-0.87 5.14-1.65 7.57-2.76 6.11-2.8 12.34-5.34 18.08-8.89 2.07-1.27 2.54-1.13 4.26 0.61 4.83 4.88 9.61 9.81 14.45 14.69 2.27 2.28 4.45 2.38 7.07 0.47 2.1-1.52 4.24-2.99 6.3-4.56 4-3.06 7.96-6.18 11.58-9.68 3.96-3.84 8.01-7.59 11.71-11.7 2.31-2.56 4.79-4.99 6.96-7.66 4.2-5.18 8.19-10.53 12.08-15.96 0.78-1.09 1.63-2.19 2.12-3.41 0.86-2.15-0.14-3.92-1.62-5.46-4.92-5.13-9.81-10.29-14.8-15.34-1.13-1.15-1.23-2.03-0.48-3.39 3.22-5.79 5.94-11.83 8.39-17.97 2.19-5.48 3.98-11.12 5.53-16.82 0.37-1.37 1.1-1.83 2.47-1.81 4.32 0.05 8.65-0.01 12.98 0.03 2.54 0.03 5.07-0.13 7.62 0.21 2.49 0.32 5.23-1.9 5.65-4.35 0.41-2.37 0.99-4.69 1.29-7.08 0.61-4.81 1.3-9.61 1.94-14.41 0.9-6.75 1-13.59 0.75-20.41z"/>
			</g>
		</g>
	</g>
</svg>